<svg width="14" height="14" viewBox="0 0 14 14" fill="none" xmlns="http://www.w3.org/2000/svg">
<path d="M12.2501 2.33334H1.75008C1.42792 2.33334 1.16675 2.59451 1.16675 2.91668V11.0833C1.16675 11.4055 1.42792 11.6667 1.75008 11.6667H12.2501C12.5722 11.6667 12.8334 11.4055 12.8334 11.0833V2.91668C12.8334 2.59451 12.5722 2.33334 12.2501 2.33334Z" stroke="#D9D9D9" stroke-width="1.16667" stroke-linejoin="round"/>
<path d="M4.95841 7.29165C5.26783 7.29165 5.56458 7.16873 5.78337 6.94994C6.00216 6.73114 6.12508 6.4344 6.12508 6.12498C6.12508 5.81556 6.00216 5.51881 5.78337 5.30002C5.56458 5.08123 5.26783 4.95831 4.95841 4.95831C4.649 4.95831 4.35225 5.08123 4.13346 5.30002C3.91466 5.51881 3.79175 5.81556 3.79175 6.12498C3.79175 6.4344 3.91466 6.73114 4.13346 6.94994C4.35225 7.16873 4.649 7.29165 4.95841 7.29165V7.29165Z" stroke="#D9D9D9" stroke-width="1.16667" stroke-linejoin="round"/>
<path d="M8.75016 8.16665H10.5002M6.7085 9.04165C6.7085 8.57752 6.52412 8.1324 6.19593 7.80421C5.86774 7.47602 5.42262 7.29165 4.9585 7.29165C4.49437 7.29165 4.04925 7.47602 3.72106 7.80421C3.39287 8.1324 3.2085 8.57752 3.2085 9.04165H6.7085ZM8.16683 5.83331H10.5002H8.16683Z" stroke="#D9D9D9" stroke-width="1.16667" stroke-linecap="round" stroke-linejoin="round"/>
</svg>
