<svg width="38" height="38" viewBox="0 0 38 38" fill="none" xmlns="http://www.w3.org/2000/svg">
<path d="M15.5 3C6.93958 3 0 9.93958 0 18.5C0 27.0604 6.93958 34 15.5 34C24.0604 34 31 27.0604 31 18.5C31 9.93958 24.0604 3 15.5 3ZM9.92969 9.15686C10.249 9.13803 10.5377 9.32891 10.7565 9.66771L12.8757 13.6865C13.0988 14.1627 12.972 14.6726 12.6392 15.0129L11.6685 15.9835C11.6086 16.0656 11.5692 16.1581 11.5682 16.2597C11.9405 17.7006 13.0696 19.0297 14.0658 19.9436C15.062 20.8576 16.1327 22.0951 17.5226 22.3882C17.6944 22.4361 17.9049 22.4533 18.0278 22.3391L19.1555 21.1906C19.5448 20.8955 20.1079 20.7525 20.5235 20.9938H20.5424L24.3663 23.2511C24.9276 23.6029 24.9857 24.2829 24.5839 24.6966L21.9501 27.3096C21.5612 27.7084 21.0445 27.8425 20.5425 27.8431C18.3221 27.7766 16.2242 26.6869 14.501 25.567C11.6725 23.5093 9.07801 20.9571 7.44917 17.8737C6.82447 16.5808 6.09062 14.931 6.16066 13.4879C6.16691 12.945 6.3138 12.4131 6.69613 12.0632L9.32991 9.42937C9.53508 9.25479 9.73806 9.16817 9.92969 9.15686V9.15686Z" fill="#888888"/>
</svg>
