<svg width="40" height="40" viewBox="0 0 40 40" fill="none" xmlns="http://www.w3.org/2000/svg">
<path d="M0 6.66667C0 2.98477 2.98477 0 6.66667 0H33.3333C37.0152 0 40 2.98477 40 6.66667V33.3333C40 37.0152 37.0152 40 33.3333 40H6.66667C2.98477 40 0 37.0152 0 33.3333V6.66667Z" fill="white" fill-opacity="0.06"/>
<g clip-path="url(#clip0_101_1015)">
<path d="M19.9999 31.6667C20.7735 31.6667 21.5153 31.3594 22.0623 30.8124C22.6093 30.2654 22.9166 29.5235 22.9166 28.75H17.0833C17.0833 29.5235 17.3905 30.2654 17.9375 30.8124C18.4845 31.3594 19.2264 31.6667 19.9999 31.6667Z" fill="white"/>
<path fill-rule="evenodd" clip-rule="evenodd" d="M19.9998 11.1304L18.8375 11.3652C17.5192 11.6338 16.3341 12.3497 15.4829 13.3917C14.6317 14.4337 14.1666 15.7378 14.1665 17.0833C14.1665 17.9991 13.9711 20.2873 13.4971 22.5404C13.2638 23.6589 12.9488 24.8241 12.5303 25.8333H27.4694C27.0509 24.8241 26.7373 23.6604 26.5025 22.5404C26.0286 20.2873 25.8332 17.9991 25.8332 17.0833C25.8327 15.7381 25.3675 14.4343 24.5163 13.3926C23.6652 12.3509 22.4803 11.6352 21.1621 11.3666L19.9998 11.1289V11.1304ZM29.0707 25.8333C29.3959 26.4852 29.7721 27.0014 30.2082 27.2916H9.7915C10.2275 27.0014 10.6038 26.4852 10.929 25.8333C12.2415 23.2083 12.7082 18.3666 12.7082 17.0833C12.7082 13.5541 15.2165 10.6083 18.5488 9.93602C18.5284 9.73324 18.5508 9.52845 18.6145 9.33485C18.6781 9.14125 18.7817 8.96315 18.9184 8.81202C19.0551 8.66089 19.222 8.54009 19.4082 8.45742C19.5945 8.37475 19.796 8.33203 19.9998 8.33203C20.2036 8.33203 20.4052 8.37475 20.5914 8.45742C20.7777 8.54009 20.9446 8.66089 21.0813 8.81202C21.218 8.96315 21.3215 9.14125 21.3852 9.33485C21.4489 9.52845 21.4712 9.73324 21.4509 9.93602C23.0992 10.2713 24.581 11.1659 25.6454 12.4684C26.7098 13.7709 27.2913 15.4012 27.2915 17.0833C27.2915 18.3666 27.7582 23.2083 29.0707 25.8333Z" fill="white"/>
<circle cx="25.8332" cy="14.1667" r="4.16667" fill="#FFAB7B"/>
</g>
<defs>
<clipPath id="clip0_101_1015">
<rect width="23.3333" height="23.3333" fill="white" transform="translate(8.33325 8.33337)"/>
</clipPath>
</defs>
</svg>
