<svg width="15" height="10" viewBox="0 0 15 10" fill="none" xmlns="http://www.w3.org/2000/svg">
<path fill-rule="evenodd" clip-rule="evenodd" d="M12.5047 4.24601C12.6182 4.35251 12.7932 4.35301 12.9037 4.24301L13.9677 3.17901C14.0822 3.06401 14.0827 2.87451 13.9647 2.76301C12.1557 1.0505 9.71422 0 7.02671 0C4.3392 0 1.8977 1.0505 0.0886903 2.76301C-0.0293101 2.87451 -0.0288101 3.06401 0.0856903 3.17901L1.14969 4.24301C1.26019 4.35301 1.43519 4.35251 1.54869 4.24601C2.9832 2.90151 4.91021 2.07701 7.02671 2.07701C9.14322 2.07701 11.0702 2.90151 12.5047 4.24601ZM10.0578 6.69647C10.1733 6.79947 10.3458 6.80047 10.4553 6.69097L11.5178 5.62847C11.6333 5.51297 11.6338 5.32047 11.5138 5.20997C10.3328 4.12446 8.75734 3.46146 7.02683 3.46146C5.29633 3.46146 3.72082 4.12446 2.53982 5.20997C2.41982 5.32047 2.42032 5.51297 2.53582 5.62847L3.59832 6.69097C3.70782 6.80047 3.88032 6.79947 3.99582 6.69647C4.80183 5.97697 5.86383 5.53847 7.02683 5.53847C8.18984 5.53847 9.25184 5.97697 10.0578 6.69647ZM9.0617 7.66112C9.18721 7.76612 9.18621 7.96162 9.0702 8.07762L7.2322 9.91563C7.1197 10.0281 6.9367 10.0281 6.8242 9.91563L4.98619 8.07762C4.87019 7.96162 4.86869 7.76612 4.99469 7.66112C5.54519 7.20062 6.2542 6.92312 7.0282 6.92312C7.8022 6.92312 8.5107 7.20062 9.0617 7.66112Z" fill="white"/>
</svg>
