<svg width="36" height="36" viewBox="0 0 36 36" fill="none" xmlns="http://www.w3.org/2000/svg">
<path d="M8.6921 16.8974L14.6026 18.8675L14.6026 18.8675C15.5337 19.1779 15.9992 19.3331 16.3331 19.6669C16.6669 20.0008 16.8221 20.4663 17.1325 21.3974L17.1325 21.3974L19.1026 27.3079C19.887 29.6611 20.2792 30.8377 21 30.8377C21.7208 30.8377 22.113 29.6611 22.8974 27.3079L28.7351 9.79473C29.287 8.13894 29.563 7.31105 29.126 6.87403C28.689 6.43702 27.8611 6.71298 26.2053 7.26491L8.6921 13.1026C6.33888 13.887 5.16228 14.2792 5.16228 15C5.16228 15.7208 6.33888 16.113 8.6921 16.8974Z" fill="#7E869E" fill-opacity="0.25"/>
<path d="M14.5257 20.8419L10.964 19.6547C10.6712 19.5571 10.3498 19.6001 10.0931 19.7713L7.50471 21.4969C6.92684 21.8821 7.08067 22.7702 7.75445 22.9386L11.709 23.9272C11.8881 23.972 12.028 24.1119 12.0728 24.291L13.0614 28.2456C13.2298 28.9193 14.1179 29.0732 14.5031 28.4953L16.2287 25.9069C16.3999 25.6502 16.4429 25.3288 16.3453 25.036L15.1581 21.4743C15.0586 21.1757 14.8243 20.9414 14.5257 20.8419Z" fill="#DFE1E7"/>
</svg>
