<svg width="27" height="14" viewBox="0 0 27 14" fill="none" xmlns="http://www.w3.org/2000/svg">
<g clip-path="url(#clip0_54_819)">
<g opacity="0.4">
<mask id="path-1-inside-1_54_819" fill="white">
<path fill-rule="evenodd" clip-rule="evenodd" d="M5.2 2H18.8C19.7266 2 20.3614 2.00078 20.8532 2.04096C21.3333 2.08018 21.5883 2.15192 21.7715 2.24524C22.1948 2.46095 22.539 2.80516 22.7548 3.22852C22.8481 3.41166 22.9198 3.66673 22.959 4.14684C22.9992 4.63862 23 5.27341 23 6.2V7.8C23 8.72659 22.9992 9.36138 22.959 9.85316C22.9198 10.3333 22.8481 10.5883 22.7548 10.7715C22.539 11.1948 22.1948 11.539 21.7715 11.7548C21.5883 11.8481 21.3333 11.9198 20.8532 11.959C20.3614 11.9992 19.7266 12 18.8 12H5.2C4.27341 12 3.63862 11.9992 3.14684 11.959C2.66673 11.9198 2.41166 11.8481 2.22852 11.7548C1.80516 11.539 1.46095 11.1948 1.24524 10.7715C1.15192 10.5883 1.08018 10.3333 1.04096 9.85316C1.00078 9.36138 1 8.72659 1 7.8V6.2C1 5.27341 1.00078 4.63862 1.04096 4.14684C1.08018 3.66673 1.15192 3.41166 1.24524 3.22852C1.46095 2.80516 1.80516 2.46095 2.22852 2.24524C2.41166 2.15192 2.66673 2.08018 3.14684 2.04096C3.63862 2.00078 4.27341 2 5.2 2ZM0 6.2C0 4.37983 0 3.46974 0.354229 2.77453C0.665817 2.163 1.163 1.66582 1.77453 1.35423C2.46974 1 3.37983 1 5.2 1H18.8C20.6202 1 21.5303 1 22.2255 1.35423C22.837 1.66582 23.3342 2.163 23.6458 2.77453C24 3.46974 24 4.37983 24 6.2V7.8C24 9.62017 24 10.5303 23.6458 11.2255C23.3342 11.837 22.837 12.3342 22.2255 12.6458C21.5303 13 20.6202 13 18.8 13H5.2C3.37983 13 2.46974 13 1.77453 12.6458C1.163 12.3342 0.665817 11.837 0.354229 11.2255C0 10.5303 0 9.62017 0 7.8V6.2ZM26.5 7C26.5 6.06808 25.8626 5.28503 25 5.06301V8.93699C25.8626 8.71497 26.5 7.93192 26.5 7Z"/>
</mask>
<path d="M20.8532 2.04096L20.7717 3.03764L20.8532 2.04096ZM21.7715 2.24524L21.3175 3.13624L21.3175 3.13624L21.7715 2.24524ZM22.7548 3.22852L23.6458 2.77453L23.6458 2.77453L22.7548 3.22852ZM22.959 4.14684L21.9624 4.22827V4.22827L22.959 4.14684ZM22.959 9.85316L21.9624 9.77173V9.77173L22.959 9.85316ZM22.7548 10.7715L23.6458 11.2255L23.6458 11.2255L22.7548 10.7715ZM21.7715 11.7548L21.3175 10.8638L21.3175 10.8638L21.7715 11.7548ZM20.8532 11.959L20.9346 12.9557L20.8532 11.959ZM3.14684 11.959L3.06541 12.9557L3.06541 12.9557L3.14684 11.959ZM2.22852 11.7548L2.68251 10.8638L2.68251 10.8638L2.22852 11.7548ZM1.24524 10.7715L0.354229 11.2255L0.354229 11.2255L1.24524 10.7715ZM1.04096 9.85316L2.03764 9.77173V9.77173L1.04096 9.85316ZM1.04096 4.14684L2.03764 4.22827L1.04096 4.14684ZM1.24524 3.22852L2.13624 3.68251L2.13624 3.68251L1.24524 3.22852ZM2.22852 2.24524L2.68251 3.13624L2.68251 3.13624L2.22852 2.24524ZM3.14684 2.04096L3.22827 3.03764H3.22827L3.14684 2.04096ZM0.354229 2.77453L1.24524 3.22852L0.354229 2.77453ZM1.77453 1.35423L2.22852 2.24524L1.77453 1.35423ZM22.2255 1.35423L22.6795 0.463222V0.463222L22.2255 1.35423ZM23.6458 2.77453L22.7548 3.22852V3.22852L23.6458 2.77453ZM23.6458 11.2255L22.7548 10.7715L23.6458 11.2255ZM22.2255 12.6458L21.7715 11.7548L22.2255 12.6458ZM1.77453 12.6458L2.22852 11.7548H2.22852L1.77453 12.6458ZM0.354229 11.2255L-0.536778 11.6795L-0.536778 11.6795L0.354229 11.2255ZM25 5.06301L25.2493 4.09457L24 3.77303V5.06301H25ZM25 8.93699H24V10.227L25.2493 9.90543L25 8.93699ZM18.8 1H5.2V3H18.8V1ZM20.9346 1.04428C20.3926 0.999992 19.7097 1 18.8 1V3C19.7435 3 20.3302 3.00156 20.7717 3.03764L20.9346 1.04428ZM22.2255 1.35423C21.8776 1.17699 21.4761 1.08852 20.9346 1.04428L20.7717 3.03764C21.1904 3.07184 21.2991 3.12685 21.3175 3.13624L22.2255 1.35423ZM23.6458 2.77453C23.3342 2.163 22.837 1.66582 22.2255 1.35423L21.3175 3.13624C21.5527 3.25608 21.7439 3.44731 21.8638 3.68251L23.6458 2.77453ZM23.9557 4.06541C23.9115 3.52388 23.823 3.12237 23.6458 2.77453L21.8638 3.68251C21.8732 3.70095 21.9282 3.80959 21.9624 4.22827L23.9557 4.06541ZM24 6.2C24 5.29033 24 4.60745 23.9557 4.06541L21.9624 4.22827C21.9984 4.66978 22 5.2565 22 6.2H24ZM24 7.8V6.2H22V7.8H24ZM23.9557 9.93459C24 9.39255 24 8.70967 24 7.8H22C22 8.7435 21.9984 9.33022 21.9624 9.77173L23.9557 9.93459ZM23.6458 11.2255C23.823 10.8776 23.9115 10.4761 23.9557 9.93459L21.9624 9.77173C21.9282 10.1904 21.8732 10.2991 21.8638 10.3175L23.6458 11.2255ZM22.2255 12.6458C22.837 12.3342 23.3342 11.837 23.6458 11.2255L21.8638 10.3175C21.7439 10.5527 21.5527 10.7439 21.3175 10.8638L22.2255 12.6458ZM20.9346 12.9557C21.4761 12.9115 21.8776 12.823 22.2255 12.6458L21.3175 10.8638C21.2991 10.8732 21.1904 10.9282 20.7717 10.9624L20.9346 12.9557ZM18.8 13C19.7097 13 20.3926 13 20.9346 12.9557L20.7717 10.9624C20.3302 10.9984 19.7435 11 18.8 11V13ZM5.2 13H18.8V11H5.2V13ZM3.06541 12.9557C3.60745 13 4.29033 13 5.2 13V11C4.2565 11 3.66978 10.9984 3.22827 10.9624L3.06541 12.9557ZM1.77453 12.6458C2.12237 12.823 2.52389 12.9115 3.06541 12.9557L3.22827 10.9624C2.80958 10.9282 2.70095 10.8732 2.68251 10.8638L1.77453 12.6458ZM0.354229 11.2255C0.665817 11.837 1.163 12.3342 1.77453 12.6458L2.68251 10.8638C2.44731 10.7439 2.25608 10.5527 2.13624 10.3175L0.354229 11.2255ZM0.0442786 9.93459C0.0885228 10.4761 0.176994 10.8776 0.354229 11.2255L2.13624 10.3175C2.12685 10.2991 2.07184 10.1904 2.03764 9.77173L0.0442786 9.93459ZM0 7.8C0 8.70967 -7.92952e-06 9.39255 0.0442787 9.93459L2.03764 9.77173C2.00156 9.33022 2 8.7435 2 7.8H0ZM0 6.2V7.8H2V6.2H0ZM0.0442787 4.06541C-7.92929e-06 4.60745 0 5.29033 0 6.2H2C2 5.2565 2.00156 4.66978 2.03764 4.22827L0.0442787 4.06541ZM0.354229 2.77453C0.176994 3.12237 0.0885227 3.52388 0.0442787 4.06541L2.03764 4.22827C2.07184 3.80959 2.12685 3.70095 2.13624 3.68251L0.354229 2.77453ZM1.77453 1.35423C1.163 1.66582 0.665817 2.163 0.354229 2.77453L2.13624 3.68251C2.25608 3.44731 2.44731 3.25608 2.68251 3.13624L1.77453 1.35423ZM3.06541 1.04428C2.52388 1.08852 2.12237 1.17699 1.77453 1.35423L2.68251 3.13624C2.70095 3.12685 2.80959 3.07184 3.22827 3.03764L3.06541 1.04428ZM5.2 1C4.29033 1 3.60745 0.999992 3.06541 1.04428L3.22827 3.03764C3.66978 3.00156 4.2565 3 5.2 3V1ZM-0.536778 2.32054C-0.797693 2.83261 -0.903069 3.38019 -0.9524 3.98397C-1.00078 4.57609 -1 5.30642 -1 6.2H1C1 5.27341 1.00078 4.63862 1.04096 4.14684C1.08018 3.66673 1.15192 3.41166 1.24524 3.22852L-0.536778 2.32054ZM1.32054 0.463222C0.520851 0.870684 -0.129316 1.52085 -0.536778 2.32054L1.24524 3.22852C1.46095 2.80516 1.80516 2.46095 2.22852 2.24524L1.32054 0.463222ZM5.2 0C4.30642 0 3.57609 -0.000777721 2.98397 0.0475997C2.38019 0.0969309 1.83261 0.202307 1.32054 0.463222L2.22852 2.24524C2.41166 2.15192 2.66673 2.08018 3.14684 2.04096C3.63862 2.00078 4.27341 2 5.2 2V0ZM18.8 0H5.2V2H18.8V0ZM22.6795 0.463222C22.1674 0.202307 21.6198 0.0969309 21.016 0.0475997C20.4239 -0.000777721 19.6936 0 18.8 0V2C19.7266 2 20.3614 2.00078 20.8532 2.04096C21.3333 2.08018 21.5883 2.15192 21.7715 2.24524L22.6795 0.463222ZM24.5368 2.32054C24.1293 1.52085 23.4791 0.870684 22.6795 0.463222L21.7715 2.24524C22.1948 2.46095 22.539 2.80516 22.7548 3.22852L24.5368 2.32054ZM25 6.2C25 5.30642 25.0008 4.57609 24.9524 3.98397C24.9031 3.38019 24.7977 2.83261 24.5368 2.32054L22.7548 3.22852C22.8481 3.41166 22.9198 3.66673 22.959 4.14684C22.9992 4.63862 23 5.27341 23 6.2H25ZM25 7.8V6.2H23V7.8H25ZM24.5368 11.6795C24.7977 11.1674 24.9031 10.6198 24.9524 10.016C25.0008 9.42391 25 8.69358 25 7.8H23C23 8.72659 22.9992 9.36138 22.959 9.85316C22.9198 10.3333 22.8481 10.5883 22.7548 10.7715L24.5368 11.6795ZM22.6795 13.5368C23.4791 13.1293 24.1293 12.4791 24.5368 11.6795L22.7548 10.7715C22.539 11.1948 22.1948 11.539 21.7715 11.7548L22.6795 13.5368ZM18.8 14C19.6936 14 20.4239 14.0008 21.016 13.9524C21.6198 13.9031 22.1674 13.7977 22.6795 13.5368L21.7715 11.7548C21.5883 11.8481 21.3333 11.9198 20.8532 11.959C20.3614 11.9992 19.7266 12 18.8 12V14ZM5.2 14H18.8V12H5.2V14ZM1.32054 13.5368C1.83261 13.7977 2.38019 13.9031 2.98397 13.9524C3.57609 14.0008 4.30642 14 5.2 14V12C4.27341 12 3.63862 11.9992 3.14684 11.959C2.66673 11.9198 2.41166 11.8481 2.22852 11.7548L1.32054 13.5368ZM-0.536778 11.6795C-0.129316 12.4791 0.520852 13.1293 1.32054 13.5368L2.22852 11.7548C1.80516 11.539 1.46095 11.1948 1.24524 10.7715L-0.536778 11.6795ZM-1 7.8C-1 8.69358 -1.00078 9.42391 -0.9524 10.016C-0.903069 10.6198 -0.797693 11.1674 -0.536778 11.6795L1.24524 10.7715C1.15192 10.5883 1.08018 10.3333 1.04096 9.85316C1.00078 9.36138 1 8.72659 1 7.8H-1ZM-1 6.2V7.8H1V6.2H-1ZM24.7507 6.03145C25.1823 6.14251 25.5 6.53541 25.5 7H27.5C27.5 5.60075 26.543 4.42755 25.2493 4.09457L24.7507 6.03145ZM26 8.93699V5.06301H24V8.93699H26ZM25.5 7C25.5 7.46459 25.1823 7.85749 24.7507 7.96855L25.2493 9.90543C26.543 9.57245 27.5 8.39925 27.5 7H25.5Z" fill="white" mask="url(#path-1-inside-1_54_819)"/>
</g>
<rect x="2" y="3" width="20" height="8" rx="1.5" fill="white"/>
</g>
<defs>
<clipPath id="clip0_54_819">
<rect width="26.5" height="12" fill="white" transform="translate(0 1)"/>
</clipPath>
</defs>
</svg>
