<svg width="30" height="30" viewBox="0 0 30 30" fill="none" xmlns="http://www.w3.org/2000/svg">
<circle cx="15" cy="15" r="15" fill="#888888"/>
<path d="M17.1 22V18.4409C17.1 17.8746 16.8788 17.3314 16.4849 16.9309C16.0911 16.5305 15.557 16.3055 15 16.3055C14.443 16.3055 13.9089 16.5305 13.5151 16.9309C13.1212 17.3314 12.9 17.8746 12.9 18.4409V22H9.4C9.0287 22 8.6726 21.85 8.41005 21.583C8.1475 21.316 8 20.9539 8 20.5764V12.8404C8 12.5945 8.0626 12.3529 8.18172 12.1389C8.30083 11.925 8.47239 11.7461 8.6797 11.6196L14.2797 8.20288C14.4973 8.07013 14.7463 8 15 8C15.2537 8 15.5027 8.07013 15.7203 8.20288L21.3203 11.6196C21.5276 11.7461 21.6992 11.925 21.8183 12.1389C21.9374 12.3529 22 12.5945 22 12.8404V20.5764C22 20.9539 21.8525 21.316 21.5899 21.583C21.3274 21.85 20.9713 22 20.6 22H17.1Z" fill="#FAFAFA"/>
</svg>
