<svg width="14" height="14" viewBox="0 0 14 14" fill="none" xmlns="http://www.w3.org/2000/svg">
<g clip-path="url(#clip0_24_1493)">
<path d="M12.25 2.33337H1.74996C1.42779 2.33337 1.16663 2.59454 1.16663 2.91671V11.0834C1.16663 11.4055 1.42779 11.6667 1.74996 11.6667H12.25C12.5721 11.6667 12.8333 11.4055 12.8333 11.0834V2.91671C12.8333 2.59454 12.5721 2.33337 12.25 2.33337Z" stroke="#D9D9D9" stroke-width="1.16667" stroke-linejoin="round"/>
<path d="M4.95829 7.29171C5.26771 7.29171 5.56446 7.16879 5.78325 6.95C6.00204 6.73121 6.12496 6.43446 6.12496 6.12504C6.12496 5.81562 6.00204 5.51888 5.78325 5.30008C5.56446 5.08129 5.26771 4.95837 4.95829 4.95837C4.64887 4.95837 4.35213 5.08129 4.13333 5.30008C3.91454 5.51888 3.79163 5.81562 3.79163 6.12504C3.79163 6.43446 3.91454 6.73121 4.13333 6.95C4.35213 7.16879 4.64887 7.29171 4.95829 7.29171V7.29171Z" stroke="#D9D9D9" stroke-width="1.16667" stroke-linejoin="round"/>
<path d="M8.75004 8.16671H10.5M6.70837 9.04171C6.70837 8.57758 6.524 8.13246 6.19581 7.80427C5.86762 7.47608 5.4225 7.29171 4.95837 7.29171C4.49425 7.29171 4.04913 7.47608 3.72094 7.80427C3.39275 8.13246 3.20837 8.57758 3.20837 9.04171H6.70837ZM8.16671 5.83337H10.5H8.16671Z" stroke="#D9D9D9" stroke-width="1.16667" stroke-linecap="round" stroke-linejoin="round"/>
</g>
<defs>
<clipPath id="clip0_24_1493">
<rect width="14" height="14" fill="white"/>
</clipPath>
</defs>
</svg>
