<svg width="36" height="36" viewBox="0 0 36 36" fill="none" xmlns="http://www.w3.org/2000/svg">
<path fill-rule="evenodd" clip-rule="evenodd" d="M21.1801 4.80099C21.0945 3.94506 21.0517 3.51709 20.766 3.25855C20.4803 3 20.0502 3 19.19 3H16.81C15.9498 3 15.5197 3 15.234 3.25855C14.9483 3.51709 14.9055 3.94506 14.8199 4.80099L14.7462 5.53832C14.5828 7.17185 14.5011 7.98862 13.9483 8.21761C13.3955 8.44659 12.7602 7.9268 11.4896 6.88723L10.9156 6.41755C10.2498 5.87284 9.91693 5.60048 9.5321 5.61968C9.14726 5.63887 8.84314 5.943 8.23488 6.55125L6.55193 8.2342C5.94368 8.84245 5.63955 9.14658 5.62036 9.53142C5.60116 9.91625 5.87352 10.2491 6.41823 10.9149L6.88837 11.4895C7.92795 12.7601 8.44773 13.3954 8.21875 13.9482C7.98977 14.501 7.173 14.5827 5.53946 14.7461L4.80099 14.8199C3.94506 14.9055 3.5171 14.9483 3.25855 15.234C3 15.5197 3 15.9498 3 16.81L3 19.19C3 20.0502 3 20.4803 3.25855 20.766C3.51709 21.0517 3.94506 21.0945 4.80099 21.1801L5.5389 21.2539C7.17243 21.4172 7.9892 21.4989 8.21819 22.0517C8.44717 22.6045 7.92738 23.2398 6.8878 24.5104L6.41816 25.0844C5.87345 25.7502 5.6011 26.0831 5.62029 26.4679C5.63948 26.8528 5.94361 27.1569 6.55186 27.7651L8.23481 29.4481C8.84307 30.0563 9.14719 30.3605 9.53203 30.3797C9.91686 30.3989 10.2497 30.1265 10.9155 29.5818L11.4896 29.1121C12.7601 28.0725 13.3954 27.5527 13.9483 27.7817C14.5011 28.0107 14.5827 28.8275 14.7461 30.461L14.8199 31.199C14.9055 32.0549 14.9483 32.4829 15.234 32.7415C15.5197 33 15.9498 33 16.81 33H19.19C20.0502 33 20.4803 33 20.766 32.7415C21.0517 32.4829 21.0945 32.0549 21.1801 31.199L21.254 30.4604C21.4173 28.8269 21.499 28.0101 22.0518 27.7811C22.6046 27.5522 23.2399 28.0719 24.5105 29.1115L25.0844 29.5811C25.7502 30.1258 26.0831 30.3982 26.4679 30.379C26.8528 30.3598 27.1569 30.0557 27.7651 29.4474L29.4481 27.7645C30.0563 27.1562 30.3605 26.8521 30.3797 26.4672C30.3989 26.0824 30.1265 25.7495 29.5818 25.0838L29.1127 24.5104C28.0731 23.2398 27.5533 22.6045 27.7823 22.0517C28.0113 21.4989 28.828 21.4172 30.4616 21.2538L31.199 21.1801C32.0549 21.0945 32.4829 21.0517 32.7415 20.766C33 20.4803 33 20.0502 33 19.19V16.81C33 15.9498 33 15.5197 32.7415 15.234C32.4829 14.9483 32.0549 14.9055 31.199 14.8199L30.461 14.7461C28.8275 14.5827 28.0107 14.5011 27.7817 13.9483C27.5527 13.3954 28.0725 12.7601 29.1121 11.4896L29.5817 10.9156C30.1264 10.2498 30.3988 9.91693 30.3796 9.5321C30.3604 9.14726 30.0563 8.84313 29.448 8.23488L27.7651 6.55193C27.1568 5.94368 26.8527 5.63955 26.4679 5.62036C26.083 5.60116 25.7501 5.87352 25.0844 6.41823L24.5104 6.88782C23.2398 7.92739 22.6046 8.44718 22.0517 8.2182C21.4989 7.98921 21.4172 7.17245 21.2539 5.53891L21.1801 4.80099Z" fill="#7E869E" fill-opacity="0.25"/>
<circle cx="18" cy="18" r="4.5" fill="white"/>
</svg>
