<svg width="14" height="14" viewBox="0 0 14 14" fill="none" xmlns="http://www.w3.org/2000/svg">
<g clip-path="url(#clip0_24_1500)">
<path d="M12.4445 2.33337H1.55561C1.34933 2.33337 1.1515 2.41532 1.00564 2.56118C0.859776 2.70704 0.777832 2.90487 0.777832 3.11115V10.8889C0.777832 11.0952 0.859776 11.293 1.00564 11.4389C1.1515 11.5848 1.34933 11.6667 1.55561 11.6667H12.4445C12.6508 11.6667 12.8486 11.5848 12.9945 11.4389C13.1403 11.293 13.2223 11.0952 13.2223 10.8889V3.11115C13.2223 2.90487 13.1403 2.70704 12.9945 2.56118C12.8486 2.41532 12.6508 2.33337 12.4445 2.33337V2.33337ZM11.8456 10.8889H2.20117L4.92339 8.07337L4.36339 7.53282L1.55561 10.4378V3.70226L6.3895 8.51282C6.53522 8.65768 6.73235 8.73899 6.93783 8.73899C7.14331 8.73899 7.34044 8.65768 7.48616 8.51282L12.4445 3.58171V10.3873L9.58228 7.52504L9.03394 8.07337L11.8456 10.8889ZM2.06505 3.11115H11.8145L6.93783 7.9606L2.06505 3.11115Z" fill="#D0D0D0"/>
</g>
<defs>
<clipPath id="clip0_24_1500">
<rect width="14" height="14" fill="white"/>
</clipPath>
</defs>
</svg>
