<svg width="14" height="14" viewBox="0 0 14 14" fill="none" xmlns="http://www.w3.org/2000/svg">
<path d="M12.4445 2.33331H1.55561C1.34933 2.33331 1.1515 2.41526 1.00564 2.56112C0.859776 2.70698 0.777832 2.90481 0.777832 3.11109V10.8889C0.777832 11.0951 0.859776 11.293 1.00564 11.4388C1.1515 11.5847 1.34933 11.6666 1.55561 11.6666H12.4445C12.6508 11.6666 12.8486 11.5847 12.9945 11.4388C13.1403 11.293 13.2223 11.0951 13.2223 10.8889V3.11109C13.2223 2.90481 13.1403 2.70698 12.9945 2.56112C12.8486 2.41526 12.6508 2.33331 12.4445 2.33331V2.33331ZM11.8456 10.8889H2.20117L4.92339 8.07331L4.36339 7.53276L1.55561 10.4378V3.7022L6.3895 8.51276C6.53522 8.65762 6.73235 8.73893 6.93783 8.73893C7.14331 8.73893 7.34044 8.65762 7.48616 8.51276L12.4445 3.58165V10.3872L9.58228 7.52498L9.03394 8.07331L11.8456 10.8889ZM2.06505 3.11109H11.8145L6.93783 7.96053L2.06505 3.11109Z" fill="#D0D0D0"/>
</svg>
